# xmcd CD database file
#
# Track frame offsets:
#	182
#	73502
#	117285
#	135770
#	180202
#	240095
#
# Disc length: 3677 seconds
#
# Revision: 0
# Processed by: cddbd v1.5.1PL0 Copyright (c) Steve Scherf et al.
# Submitted via: CDex 1.50Beta5
#
DISCID=3a0e5b06
DTITLE=Klaus Wiese - Vision
DYEAR=1900
DGENRE=New Age
TTITLE0=Devotion
TTITLE1=Night Of The Soul
TTITLE2=The Gate
TTITLE3=Joy
TTITLE4=The Garden
TTITLE5=World Of Allah
EXTD=
EXTT0=
EXTT1=
EXTT2=
EXTT3=
EXTT4=
EXTT5=
PLAYORDER=
